<?xml version="1.0" standalone="no"?>
<!DOCTYPE svg PUBLIC "-//W3C//DTD SVG 20010904//EN"
 "http://www.w3.org/TR/2001/REC-SVG-20010904/DTD/svg10.dtd">
<svg version="1.0" xmlns="http://www.w3.org/2000/svg"
 width="260.000000pt" height="260.000000pt" viewBox="0 0 260.000000 260.000000"
 preserveAspectRatio="xMidYMid meet">
<metadata>
Created by potrace 1.14, written by Peter Selinger 2001-2017
</metadata>
<g transform="translate(0.000000,260.000000) scale(0.100000,-0.100000)"
fill="#000000" stroke="none">
<path d="M305 2579 c-4 -5 -24 -7 -46 -5 -21 2 -39 0 -39 -6 0 -5 -5 -6 -12
-2 -6 4 -16 1 -22 -7 -6 -8 -18 -14 -26 -14 -8 0 -14 -6 -12 -13 1 -8 -2 -11
-8 -7 -6 4 -24 -7 -39 -24 -15 -17 -31 -28 -35 -24 -4 4 -4 0 -1 -9 4 -10 -3
-25 -17 -38 -13 -13 -16 -19 -8 -15 13 8 13 7 1 -8 -7 -9 -10 -17 -5 -17 5 0
2 -5 -6 -10 -11 -7 -11 -10 -2 -10 10 0 10 -5 2 -20 -6 -11 -7 -20 -3 -20 4 0
1 -5 -7 -10 -13 -8 -13 -10 -1 -10 12 0 12 -3 3 -12 -7 -7 -12 -17 -12 -22 0
-6 5 -4 10 4 8 13 10 13 10 -2 0 -9 -5 -20 -10 -23 -6 -3 -10 -12 -10 -18 0
-8 3 -8 9 2 5 8 8 -8 7 -42 0 -31 -4 -59 -8 -63 -5 -4 -8 -12 -8 -18 0 -6 4
-5 9 2 5 9 8 -7 8 -40 -1 -29 -6 -56 -11 -60 -7 -5 -3 -8 8 -8 12 0 16 -5 12
-16 -3 -8 -2 -12 4 -9 6 3 10 2 10 -3 0 -5 253 -8 588 -8 323 1 595 -3 606 -7
11 -6 16 -5 12 1 -3 5 5 10 19 10 14 0 22 -5 18 -11 -3 -6 -1 -7 6 -3 20 13
82 15 74 3 -3 -6 -1 -7 6 -3 20 13 82 15 74 3 -3 -6 -1 -7 6 -3 20 13 82 15
74 3 -3 -6 -1 -7 6 -3 20 13 82 15 74 3 -3 -6 -1 -7 6 -3 20 13 82 15 74 3 -3
-6 -1 -7 6 -3 20 13 82 15 74 3 -3 -6 -1 -7 6 -3 18 11 82 15 75 5 -3 -5 2 -6
12 -2 24 9 557 10 571 0 6 -4 14 -3 18 3 5 8 11 7 23 -2 14 -11 15 -10 9 6 -6
15 -5 17 6 7 16 -13 52 -10 67 5 5 5 11 19 13 31 2 13 6 26 10 29 4 4 7 12 7
18 0 6 -5 4 -10 -4 -8 -12 -10 -10 -10 8 0 13 4 21 8 18 5 -3 9 1 9 9 0 8 -4
12 -9 9 -4 -3 -8 2 -8 11 0 9 4 14 8 11 5 -3 9 1 9 9 0 8 -4 12 -7 10 -10 -6
-6 167 4 184 7 10 5 12 -4 6 -10 -6 -12 -3 -8 13 4 13 1 22 -5 22 -7 0 -5 5 3
10 12 7 12 10 1 10 -7 0 -11 6 -7 15 3 8 -2 19 -12 24 -9 6 -13 11 -9 11 8 0
-2 14 -46 60 -16 17 -33 28 -38 25 -5 -4 -6 2 -2 11 5 13 3 16 -10 11 -9 -3
-23 0 -31 8 -8 8 -26 15 -41 15 -18 0 -24 4 -19 13 4 6 -3 3 -16 -8 -13 -11
-20 -15 -17 -9 4 7 0 15 -9 18 -8 3 -12 2 -9 -4 3 -6 1 -10 -4 -10 -6 0 -11 5
-11 12 0 9 -3 9 -12 0 -16 -16 -31 -15 -22 1 5 8 2 8 -9 -2 -14 -11 -17 -11
-17 0 0 10 -3 10 -12 1 -16 -16 -31 -15 -22 1 5 8 2 8 -9 -2 -14 -11 -17 -11
-17 0 0 10 -3 10 -12 1 -16 -16 -31 -15 -22 1 5 8 2 8 -9 -2 -14 -11 -17 -11
-17 0 0 10 -3 10 -12 1 -16 -16 -31 -15 -22 1 5 8 2 8 -9 -2 -14 -11 -17 -11
-17 0 0 10 -3 10 -12 1 -16 -16 -31 -15 -22 1 5 8 2 8 -9 -2 -14 -11 -17 -11
-17 0 0 10 -3 10 -12 1 -16 -16 -31 -15 -22 1 5 8 2 8 -9 -2 -14 -11 -17 -11
-17 0 0 10 -3 10 -12 1 -16 -16 -31 -15 -22 1 5 8 2 8 -9 -2 -14 -11 -17 -11
-17 0 0 10 -3 10 -12 1 -16 -16 -31 -15 -22 1 5 8 2 8 -9 -2 -14 -11 -17 -11
-17 0 0 10 -3 10 -12 1 -16 -16 -31 -15 -22 1 5 8 2 8 -9 -2 -14 -11 -17 -11
-17 0 0 10 -3 10 -12 1 -16 -16 -31 -15 -22 1 5 8 2 8 -9 -2 -14 -11 -17 -11
-17 0 0 10 -3 10 -12 1 -16 -16 -31 -15 -22 1 5 8 2 8 -9 -2 -14 -11 -17 -11
-17 0 0 10 -3 10 -12 1 -16 -16 -31 -15 -22 1 5 8 2 8 -9 -2 -14 -11 -17 -11
-17 0 0 10 -3 10 -12 1 -16 -16 -31 -15 -22 1 5 8 2 8 -9 -2 -14 -11 -17 -11
-17 0 0 10 -3 10 -12 1 -16 -16 -31 -15 -22 1 5 8 2 8 -9 -2 -14 -11 -17 -11
-17 0 0 10 -3 10 -12 1 -16 -16 -31 -15 -22 1 5 8 2 8 -9 -2 -14 -11 -17 -11
-17 0 0 10 -3 10 -12 1 -16 -16 -31 -15 -22 1 5 8 2 8 -9 -2 -14 -11 -17 -11
-17 0 0 10 -3 10 -12 1 -16 -16 -31 -15 -22 1 5 8 2 8 -9 -2 -14 -11 -17 -11
-17 0 0 10 -3 10 -12 1 -16 -16 -31 -15 -22 1 5 8 2 8 -9 -2 -14 -11 -17 -11
-17 0 0 10 -3 10 -12 1 -16 -16 -31 -15 -22 1 5 8 2 8 -9 -2 -14 -11 -17 -11
-17 0 0 10 -3 10 -12 1 -16 -16 -31 -15 -22 1 5 8 2 8 -9 -2 -14 -11 -17 -11
-17 0 0 10 -3 10 -12 1 -16 -16 -31 -15 -22 1 5 8 2 8 -9 -2 -14 -11 -17 -11
-17 0 0 10 -3 10 -12 1 -16 -16 -31 -15 -22 1 5 8 2 8 -9 -2 -14 -11 -17 -11
-17 0 0 10 -3 10 -12 1 -16 -16 -31 -15 -22 1 5 8 2 8 -9 -2 -14 -11 -17 -11
-17 0 0 10 -3 10 -12 1 -16 -16 -31 -15 -22 1 5 8 2 8 -9 -2 -14 -11 -17 -11
-17 0 0 10 -3 10 -12 1 -16 -16 -31 -15 -22 1 5 8 2 8 -9 -2 -14 -11 -17 -11
-17 0 0 10 -3 10 -12 1 -16 -16 -31 -15 -22 1 5 8 2 8 -9 -2 -14 -11 -17 -11
-17 0 0 10 -3 10 -12 1 -16 -16 -31 -15 -22 1 5 8 2 8 -9 -2 -14 -11 -17 -11
-17 0 0 10 -3 10 -12 1 -16 -16 -31 -15 -22 1 5 8 2 8 -9 -2 -14 -11 -17 -11
-17 0 0 10 -3 10 -12 1 -16 -16 -31 -15 -22 1 5 8 2 8 -9 -2 -14 -11 -17 -11
-17 0 0 10 -3 10 -12 1 -16 -16 -31 -15 -22 1 5 8 2 8 -9 -2 -14 -11 -17 -11
-17 0 0 10 -3 10 -12 1 -16 -16 -31 -15 -22 1 5 8 2 8 -9 -2 -13 -10 -17 -10
-17 -1 0 10 -3 10 -14 1 -10 -8 -16 -9 -21 -1 -3 5 -12 10 -18 10 -7 0 -6 -4
3 -10 12 -8 9 -10 -13 -10 -16 0 -26 4 -23 8 2 4 -4 8 -14 9 -11 1 -22 -2 -25
-8z m159 -242 c3 3 6 1 6 -6 0 -7 5 -9 10 -6 6 3 10 -1 10 -10 0 -9 5 -13 10
-10 6 4 10 -5 10 -19 0 -14 -6 -26 -12 -27 -10 0 -10 -2 -1 -5 8 -4 7 -11 -5
-24 -12 -15 -18 -16 -24 -7 -4 7 -8 7 -8 1 0 -12 -92 -11 -128 1 -18 6 -20 10
-10 16 10 7 8 9 -6 9 -15 0 -16 3 -6 15 11 13 10 14 -5 9 -15 -6 -16 -4 -7 13
18 32 42 48 78 48 18 1 36 4 40 8 4 3 14 2 24 -3 10 -5 20 -6 24 -3z m312 4
c-3 -5 8 -11 24 -14 21 -5 28 -11 24 -22 -3 -8 -1 -15 5 -15 6 0 11 -7 11 -15
0 -8 -5 -15 -11 -15 -5 0 -7 -4 -4 -10 3 -5 1 -10 -5 -10 -6 0 -8 -4 -5 -10 7
-11 2 -12 -42 -13 -16 -1 -31 -6 -35 -12 -5 -6 -8 -5 -8 4 0 11 -3 11 -17 0
-14 -12 -16 -12 -8 0 6 11 1 13 -24 9 -25 -4 -31 -1 -31 13 0 10 -6 24 -14 31
-16 15 -3 64 17 66 75 5 108 10 114 15 9 10 15 8 9 -2z m888 -3 c-8 -13 11 -9
25 5 11 10 13 10 7 0 -9 -16 -1 -16 25 -3 13 8 19 7 19 0 0 -6 5 -8 13 -3 17
11 38 13 32 3 -3 -4 4 -10 15 -13 12 -3 18 -1 14 5 -3 5 2 9 12 8 11 -1 21 -1
24 0 14 6 59 6 55 0 -3 -4 4 -10 15 -13 12 -3 18 -1 14 5 -3 5 2 8 12 7 11 -2
24 0 31 4 6 4 14 3 18 -3 3 -5 11 -10 16 -10 6 0 7 5 3 11 -5 8 -1 8 14 0 15
-8 23 -8 27 0 5 7 14 4 28 -8 11 -10 17 -12 13 -5 -6 10 -3 13 10 11 11 -2 24
0 31 4 6 4 14 3 18 -3 3 -5 11 -10 16 -10 6 0 7 5 3 12 -4 7 -3 8 4 4 22 -13
52 -15 52 -3 0 7 7 3 15 -7 11 -15 15 -16 16 -5 0 12 1 12 6 -1 9 -22 30 -40
38 -32 4 4 2 -3 -4 -16 -7 -12 -9 -27 -6 -32 6 -9 -11 -23 -34 -27 -8 -1 -18
-8 -22 -15 -7 -11 -9 -10 -9 1 0 10 -3 11 -13 2 -8 -6 -17 -8 -20 -4 -11 11
-67 11 -60 0 4 -6 1 -7 -6 -2 -18 10 -71 13 -77 3 -3 -5 -10 -5 -16 -2 -19 12
-68 13 -61 2 4 -7 0 -7 -12 0 -11 6 -30 6 -47 1 -17 -5 -26 -4 -23 2 9 14 -9
11 -31 -6 -10 -8 -23 -15 -28 -15 -6 0 -1 6 9 14 18 13 17 14 -17 13 -21 0
-34 -5 -31 -11 3 -5 1 -6 -4 -3 -14 9 -113 16 -108 8 2 -4 -5 -7 -15 -7 -10 0
-16 4 -14 8 9 14 -10 9 -36 -9 -24 -16 -24 -16 -11 0 16 20 8 22 -21 6 -15 -8
-19 -8 -13 1 5 8 0 11 -16 9 -27 -3 -69 9 -70 19 0 4 -2 15 -4 25 -4 21 19 70
28 60 4 -3 7 -1 7 5 0 7 10 8 30 2 21 -6 28 -5 24 2 -5 7 0 9 14 6 12 -4 24
-3 26 1 3 4 16 7 30 7 13 0 22 -4 20 -8z"/>
<path d="M166 1852 c-3 -6 -14 -8 -23 -5 -12 5 -14 3 -8 -8 7 -11 6 -12 -6 -3
-16 12 -62 16 -54 5 2 -5 -6 -7 -20 -6 -17 2 -22 -1 -18 -11 3 -8 1 -14 -4
-14 -5 0 -8 -20 -8 -45 1 -26 -3 -45 -9 -45 -6 0 -5 -4 3 -9 9 -6 10 -11 2
-15 -6 -4 -11 -13 -11 -19 0 -7 4 -6 10 3 8 13 10 13 10 -2 0 -9 -4 -20 -10
-23 -5 -3 -10 -12 -10 -18 0 -8 3 -8 9 2 5 8 8 -8 7 -42 0 -31 -4 -59 -8 -63
-5 -4 -8 -12 -8 -18 0 -6 4 -5 9 3 5 8 8 -8 7 -42 0 -31 -4 -59 -9 -63 -4 -4
-7 -12 -7 -18 0 -6 4 -5 9 3 5 8 8 -8 7 -42 0 -31 -4 -59 -8 -63 -5 -4 -8 -12
-8 -18 0 -6 4 -5 9 3 5 8 8 -8 7 -42 0 -31 -4 -59 -8 -63 -5 -4 -8 -12 -8 -18
0 -6 4 -5 9 3 5 8 8 -8 7 -42 0 -31 -4 -59 -9 -63 -4 -4 -7 -12 -7 -18 0 -6 4
-5 9 3 5 8 8 -8 7 -42 0 -31 -4 -59 -8 -63 -5 -4 -8 -12 -8 -18 0 -6 4 -5 9 3
5 8 8 -8 7 -42 0 -31 -4 -59 -9 -63 -4 -4 -7 -12 -7 -18 0 -6 4 -5 9 3 5 8 8
-8 7 -42 0 -31 -4 -59 -9 -63 -4 -4 -7 -12 -7 -18 0 -6 4 -5 9 3 5 8 8 -8 7
-42 0 -31 -4 -59 -9 -63 -4 -4 -7 -12 -7 -18 0 -6 4 -5 9 3 5 8 8 -8 7 -42 0
-31 -4 -59 -9 -63 -4 -4 -7 -12 -7 -18 0 -6 4 -5 9 3 5 8 8 -8 7 -42 0 -31 -4
-59 -9 -63 -4 -4 -7 -12 -7 -18 0 -6 4 -5 9 3 6 10 9 0 9 -30 -1 -65 7 -110
22 -119 7 -4 9 -13 5 -20 -5 -9 -4 -11 3 -6 7 4 12 1 12 -7 0 -8 7 -17 15 -21
8 -3 14 -11 13 -18 -2 -7 5 -12 14 -10 11 2 18 -3 18 -14 0 -10 3 -15 6 -11 4
3 13 0 20 -8 8 -8 22 -11 31 -8 12 5 14 3 8 -7 -6 -10 -3 -12 13 -8 12 4 22 2
22 -4 0 -5 5 -6 10 -3 6 4 18 1 27 -7 10 -8 14 -8 10 -1 -5 8 2 11 22 11 19
-1 28 -5 24 -12 -4 -6 0 -5 9 2 13 10 17 10 21 0 4 -10 6 -10 6 0 1 16 28 16
34 0 4 -10 7 -11 18 0 15 14 33 16 25 3 -4 -5 3 -7 14 -4 11 3 17 10 13 17 -4
7 -1 6 9 -1 8 -7 18 -10 21 -6 4 3 7 2 7 -4 0 -11 36 -11 46 0 12 12 26 8 18
-5 -5 -9 -2 -9 9 1 14 11 17 11 17 0 0 -8 6 -5 15 7 10 13 13 14 10 3 -4 -10
0 -16 9 -16 8 0 12 5 9 10 -4 6 0 8 9 4 9 -3 21 0 28 6 10 9 11 9 6 0 -5 -9 0
-13 14 -13 14 0 19 4 14 13 -5 9 -4 9 6 0 7 -6 19 -9 28 -6 11 5 13 3 7 -8 -8
-12 -6 -12 8 0 13 10 17 10 17 1 0 -9 3 -10 13 -1 10 8 17 7 26 -2 10 -9 15
-8 27 7 11 15 14 16 14 5 0 -9 7 -16 15 -16 8 0 12 4 9 8 -2 4 9 7 25 7 19 -1
28 -5 24 -12 -4 -6 1 -5 10 3 11 9 17 10 17 2 0 -6 5 -11 11 -11 5 0 7 5 3 11
-4 7 1 9 12 7 11 -2 18 -11 16 -18 -3 -11 1 -10 16 3 21 19 37 23 26 6 -4 -8
0 -8 15 0 12 7 27 9 33 5 16 -10 58 -11 64 -2 3 4 10 8 15 8 6 0 7 -6 3 -12
-6 -10 -4 -10 8 0 13 10 17 10 21 0 4 -10 6 -10 6 0 1 6 7 12 15 12 8 0 16 -6
19 -12 3 -9 10 -7 26 6 17 16 21 17 16 4 -5 -13 -2 -15 14 -11 12 3 18 10 14
17 -4 7 -1 6 9 -1 8 -7 18 -10 21 -6 4 3 7 2 7 -4 0 -11 36 -11 46 0 12 12 26
8 18 -5 -5 -9 -2 -9 9 1 14 11 17 11 17 0 0 -8 6 -5 15 7 10 13 13 14 10 3 -4
-10 0 -16 9 -16 8 0 12 5 9 10 -4 6 0 8 10 4 9 -3 19 -2 22 4 4 5 12 6 18 2 7
-5 26 -8 42 -8 21 0 29 -5 27 -15 -3 -11 1 -11 16 3 19 17 37 23 28 9 -2 -4 5
-9 17 -9 17 -2 19 0 7 7 -13 8 -13 10 2 10 9 0 20 -5 23 -10 4 -7 12 -7 25 0
25 13 33 13 24 -2 -6 -10 -4 -10 7 0 17 16 32 16 23 0 -6 -10 -4 -10 8 0 13
10 17 10 21 0 4 -10 6 -10 6 0 1 16 28 16 34 0 4 -10 7 -11 18 0 15 14 33 16
25 3 -4 -5 3 -7 14 -4 11 3 17 10 13 17 -4 7 -1 6 9 -1 8 -7 18 -10 21 -6 4 3
7 2 7 -4 0 -11 36 -11 46 0 12 12 26 8 18 -5 -6 -10 -4 -10 8 0 13 10 17 10
21 0 4 -10 6 -10 6 0 1 6 6 12 12 12 5 0 8 -4 5 -8 -3 -5 1 -9 9 -9 8 0 11 5
8 10 -4 6 0 8 9 4 9 -3 21 0 28 6 10 9 11 9 6 0 -5 -9 0 -13 14 -13 14 0 19 4
14 12 -5 10 -4 10 6 1 7 -6 19 -9 28 -6 11 5 13 3 7 -8 -8 -12 -6 -12 8 0 13
10 17 10 17 1 0 -9 3 -10 13 -1 10 8 17 7 26 -2 10 -9 15 -8 27 7 10 14 14 16
14 5 0 -8 10 -14 24 -14 16 0 21 4 15 11 -6 7 1 9 21 6 16 -2 38 -1 47 3 10 3
20 6 21 5 2 -1 10 7 18 17 8 11 13 13 14 6 0 -9 6 -7 18 5 11 9 17 20 15 25
-2 4 5 7 17 7 12 0 19 4 15 9 -3 6 2 14 11 19 9 5 16 11 15 13 -2 14 13 49 21
49 6 0 8 7 4 15 -3 8 -2 15 2 15 4 0 7 12 6 27 -1 16 4 34 10 42 8 11 8 13 -1
7 -16 -9 -16 -1 -2 26 9 16 8 19 -2 13 -9 -6 -10 -3 -6 8 4 10 10 25 13 35 5
14 4 15 -5 2 -9 -12 -11 -11 -11 8 0 13 4 21 8 18 5 -3 9 1 9 9 0 8 -4 12 -9
9 -4 -3 -8 2 -8 11 0 9 4 14 8 11 5 -3 9 1 9 9 0 8 -4 12 -9 9 -4 -3 -8 2 -8
11 0 10 5 13 13 9 9 -6 9 -4 1 7 -12 16 -13 337 -1 356 4 6 3 15 -3 18 -8 5
-7 12 2 23 10 12 10 14 1 8 -16 -9 -16 -1 -2 26 8 15 8 19 0 14 -14 -9 -14 0
0 26 9 16 8 19 -2 13 -9 -6 -10 -3 -6 8 4 10 10 25 13 35 5 14 4 15 -5 2 -9
-12 -11 -11 -11 8 0 13 4 21 8 18 5 -3 9 1 9 9 0 8 -4 12 -9 9 -4 -3 -8 2 -8
11 0 9 4 14 8 11 5 -3 9 1 9 9 0 8 -3 12 -7 10 -9 -5 -6 367 3 382 4 6 3 15
-3 18 -8 5 -7 12 2 23 10 12 10 14 1 8 -16 -9 -16 -1 -2 26 8 15 8 19 0 14
-14 -9 -14 0 0 26 9 16 8 19 -2 13 -8 -6 -11 -4 -7 6 3 8 9 23 13 34 6 16 5
17 -4 5 -9 -12 -11 -11 -11 8 0 13 4 21 8 18 5 -3 9 1 9 9 0 8 -4 12 -9 9 -4
-3 -8 2 -8 11 0 9 4 14 8 11 5 -3 9 1 9 9 0 8 -5 12 -10 8 -5 -3 -7 10 -4 31
3 20 1 39 -4 42 -5 3 -7 10 -3 15 3 5 2 9 -3 8 -4 -1 -10 -1 -13 1 -3 1 -15 3
-28 6 -17 3 -21 0 -16 -8 4 -7 -3 -4 -16 7 -13 11 -20 14 -16 7 10 -16 -25
-13 -36 3 -5 6 -8 6 -8 -2 0 -6 -12 -10 -27 -8 -16 2 -33 -1 -40 -6 -7 -7 -14
-6 -19 2 -5 8 -3 9 6 4 9 -5 11 -4 6 3 -5 8 -13 9 -24 3 -9 -4 -23 -6 -29 -4
-7 3 -13 -1 -13 -9 0 -10 -3 -9 -10 2 -5 8 -10 11 -10 7 0 -4 -10 -3 -21 4
-16 8 -20 8 -14 -1 9 -14 -27 -10 -37 5 -5 6 -8 6 -8 -2 0 -7 -13 -10 -36 -7
-25 3 -33 1 -28 -7 5 -8 3 -9 -7 -3 -24 14 -51 16 -43 2 6 -10 4 -10 -8 0 -16
13 -53 13 -75 -1 -6 -4 -15 -2 -19 4 -5 8 -3 9 6 4 9 -6 11 -4 5 5 -6 10 -11
10 -20 -4 -11 -14 -13 -15 -18 -1 -5 11 -12 13 -32 5 -14 -5 -25 -7 -25 -4 0
4 -8 0 -17 -7 -15 -12 -16 -12 -10 4 3 9 2 17 -2 17 -5 0 -12 -7 -15 -16 -4
-9 -11 -12 -18 -7 -20 13 -158 11 -151 -1 4 -6 0 -6 -8 1 -17 14 -96 13 -118
-1 -11 -7 -13 -5 -8 7 3 10 2 17 -2 17 -5 0 -12 -7 -15 -16 -4 -9 -11 -12 -18
-7 -20 13 -158 11 -151 -1 4 -6 0 -6 -8 1 -16 13 -86 13 -106 0 -6 -4 -15 -2
-19 4 -5 8 -3 9 6 4 9 -5 11 -4 6 3 -5 8 -13 9 -24 3 -9 -4 -23 -6 -29 -4 -7
3 -13 -1 -13 -9 0 -10 -3 -9 -10 2 -5 8 -10 11 -10 7 0 -4 -10 -3 -21 4 -16 8
-20 8 -14 -1 9 -14 -27 -10 -37 5 -5 6 -8 6 -8 -2 0 -7 -13 -10 -36 -7 -25 3
-33 1 -28 -7 5 -8 3 -9 -7 -3 -24 14 -51 16 -43 2 6 -10 4 -10 -8 0 -16 13
-53 13 -75 -1 -6 -4 -15 -2 -19 4 -5 8 -3 9 6 4 9 -6 11 -4 5 5 -6 10 -11 10
-20 -4 -12 -15 -13 -15 -19 0 -5 12 -9 14 -20 5 -7 -6 -16 -8 -19 -4 -4 3 -13
0 -21 -6 -11 -9 -16 -9 -22 0 -5 8 -3 9 6 4 9 -5 11 -4 6 3 -5 8 -13 9 -25 2
-10 -5 -21 -6 -25 -2 -4 3 -11 0 -16 -8 -6 -8 -10 -10 -10 -4 0 12 -59 13 -77
1 -6 -4 -15 -2 -19 4 -5 8 -3 9 6 4 9 -5 11 -4 6 3 -5 8 -13 9 -24 3 -9 -4
-23 -6 -29 -4 -7 3 -13 -1 -13 -9 0 -10 -3 -9 -10 2 -5 8 -10 11 -10 7 0 -4
-10 -3 -21 4 -16 8 -20 8 -14 -1 9 -14 -27 -10 -37 5 -5 6 -8 6 -8 -2 0 -7
-13 -10 -36 -7 -25 3 -33 1 -28 -7 5 -8 3 -9 -7 -3 -24 14 -51 16 -43 2 6 -10
4 -10 -8 0 -16 13 -53 13 -75 -1 -6 -4 -15 -2 -19 4 -5 8 -3 9 6 4 9 -6 11 -4
5 5 -6 10 -10 10 -20 -3 -10 -14 -12 -14 -21 1 -7 11 -13 12 -18 4z m1044
-502 c7 12 10 11 16 -3 3 -9 10 -14 15 -11 5 3 9 0 9 -6 0 -6 4 -9 9 -6 4 3
19 -3 31 -14 12 -11 27 -17 31 -14 5 3 9 -2 9 -12 0 -14 2 -15 18 -3 9 7 14 9
10 5 -10 -12 10 -36 30 -36 8 0 21 -8 29 -17 8 -11 11 -12 7 -3 -7 12 -5 13 8
3 8 -7 17 -10 21 -7 3 3 8 -4 12 -15 3 -12 15 -21 26 -21 10 0 19 -5 19 -11 0
-5 4 -7 10 -4 5 3 19 -5 31 -19 12 -13 27 -22 34 -19 8 2 22 -4 32 -14 11 -11
26 -17 34 -15 8 3 11 1 7 -3 -4 -4 2 -21 13 -36 14 -21 16 -29 7 -29 -8 0 -6
-5 5 -11 14 -8 15 -14 7 -24 -6 -7 -9 -17 -8 -21 4 -13 -28 -55 -35 -48 -4 4
-9 -1 -13 -10 -3 -9 -13 -16 -20 -16 -8 0 -17 -7 -20 -15 -4 -8 -10 -15 -16
-15 -5 0 -6 6 -3 13 4 6 -2 2 -13 -10 -11 -12 -22 -19 -26 -16 -3 4 -6 1 -6
-6 0 -7 -4 -10 -9 -7 -5 3 -12 -1 -15 -10 -3 -8 -10 -12 -16 -9 -5 3 -10 1
-10 -5 0 -6 -4 -8 -10 -5 -5 3 -10 1 -10 -5 0 -6 -4 -8 -10 -5 -5 3 -10 1 -10
-5 0 -6 -4 -8 -10 -5 -5 3 -10 -1 -10 -9 0 -9 -5 -16 -11 -16 -5 0 -7 5 -4 11
4 6 -2 5 -13 -2 -12 -7 -18 -17 -16 -21 5 -8 -10 -12 -35 -9 -7 2 -10 -2 -7
-7 6 -9 -29 -26 -48 -23 -5 1 -6 -4 -3 -12 4 -10 -3 -13 -24 -12 -15 1 -27 -1
-25 -4 6 -9 -17 -26 -36 -27 -10 -1 -18 3 -18 8 0 7 -5 6 -14 -1 -10 -8 -16
-8 -25 2 -6 8 -9 16 -6 19 3 2 -2 5 -10 6 -8 1 -21 3 -28 4 -8 1 -12 13 -11
30 1 15 -1 28 -5 28 -5 0 -7 12 -6 28 1 15 -2 35 -8 46 -6 13 -6 16 2 12 13
-8 10 21 -3 43 -7 10 -6 12 4 6 10 -6 12 -4 7 7 -3 9 0 21 6 28 8 8 8 11 1 7
-7 -4 -11 7 -10 33 0 22 5 40 11 40 6 0 5 4 -1 8 -14 9 -13 64 1 74 6 5 6 8
-2 8 -13 0 -12 74 0 87 4 3 1 13 -5 21 -15 17 -20 44 -7 36 5 -3 10 0 10 5 2
12 5 26 9 39 1 4 2 11 1 15 -1 5 3 6 8 3 5 -3 12 1 15 10 3 8 10 12 16 9 5 -3
10 -1 10 5 0 6 4 9 9 5 5 -3 13 -1 16 5 5 8 11 7 22 -1 12 -10 16 -10 23 1z"/>
</g>
</svg>
